<svg data-v-423bf9ae="" xmlns="http://www.w3.org/2000/svg" viewBox="0 0 324 90" class="iconLeft"><!----><!----><!----><g data-v-423bf9ae="" id="1636bcf9-f0b2-4c4f-bdbd-5d28c29090fd" fill="#000000" transform="matrix(5.741626899055351,0,0,5.741626899055351,71.71541742674717,-3.143539824892642)"><path d="M8.83 13.55L4.62 8.72L2.42 10.98L2.42 13.55L1.71 13.55L1.71 3.75L2.42 3.75L2.42 10.05L8.54 3.75L9.41 3.75L5.10 8.20L9.70 13.55L8.83 13.55ZM14.90 6.19L14.90 6.19Q16.27 6.19 17.07 6.99L17.07 6.99L17.07 6.99Q17.86 7.78 17.86 9.28L17.86 9.28L17.86 13.55L17.16 13.55L17.16 9.34L17.16 9.34Q17.16 8.11 16.54 7.46L16.54 7.46L16.54 7.46Q15.92 6.82 14.80 6.82L14.80 6.82L14.80 6.82Q13.51 6.82 12.77 7.59L12.77 7.59L12.77 7.59Q12.03 8.36 12.03 9.66L12.03 9.66L12.03 13.55L11.33 13.55L11.33 6.24L12.00 6.24L12.00 7.83L12.00 7.83Q12.38 7.06 13.13 6.62L13.13 6.62L13.13 6.62Q13.87 6.19 14.90 6.19L14.90 6.19ZM23.60 13.61L23.60 13.61Q22.57 13.61 21.74 13.13L21.74 13.13L21.74 13.13Q20.90 12.66 20.43 11.81L20.43 11.81L20.43 11.81Q19.95 10.96 19.95 9.90L19.95 9.90L19.95 9.90Q19.95 8.83 20.43 7.99L20.43 7.99L20.43 7.99Q20.90 7.14 21.74 6.66L21.74 6.66L21.74 6.66Q22.57 6.19 23.60 6.19L23.60 6.19L23.60 6.19Q24.64 6.19 25.47 6.66L25.47 6.66L25.47 6.66Q26.31 7.14 26.78 7.99L26.78 7.99L26.78 7.99Q27.26 8.83 27.26 9.90L27.26 9.90L27.26 9.90Q27.26 10.96 26.78 11.81L26.78 11.81L26.78 11.81Q26.31 12.66 25.47 13.13L25.47 13.13L25.47 13.13Q24.64 13.61 23.60 13.61L23.60 13.61ZM23.60 12.98L23.60 12.98Q24.44 12.98 25.11 12.59L25.11 12.59L25.11 12.59Q25.77 12.19 26.16 11.49L26.16 11.49L26.16 11.49Q26.54 10.79 26.54 9.90L26.54 9.90L26.54 9.90Q26.54 9.00 26.16 8.30L26.16 8.30L26.16 8.30Q25.77 7.60 25.11 7.21L25.11 7.21L25.11 7.21Q24.44 6.82 23.60 6.82L23.60 6.82L23.60 6.82Q22.76 6.82 22.10 7.21L22.10 7.21L22.10 7.21Q21.43 7.60 21.05 8.30L21.05 8.30L21.05 8.30Q20.66 9.00 20.66 9.90L20.66 9.90L20.66 9.90Q20.66 10.79 21.05 11.49L21.05 11.49L21.05 11.49Q21.43 12.19 22.10 12.59L22.10 12.59L22.10 12.59Q22.76 12.98 23.60 12.98L23.60 12.98ZM32.33 13.61L32.33 13.61Q31.26 13.61 30.42 13.13L30.42 13.13L30.42 13.13Q29.58 12.66 29.11 11.81L29.11 11.81L29.11 11.81Q28.63 10.96 28.63 9.90L28.63 9.90L28.63 9.90Q28.63 8.82 29.11 7.97L29.11 7.97L29.11 7.97Q29.58 7.13 30.42 6.66L30.42 6.66L30.42 6.66Q31.26 6.19 32.33 6.19L32.33 6.19L32.33 6.19Q33.21 6.19 33.93 6.53L33.93 6.53L33.93 6.53Q34.65 6.87 35.10 7.53L35.10 7.53L34.58 7.91L34.58 7.91Q34.19 7.36 33.61 7.09L33.61 7.09L33.61 7.09Q33.03 6.82 32.33 6.82L32.33 6.82L32.33 6.82Q31.47 6.82 30.79 7.20L30.79 7.20L30.79 7.20Q30.11 7.59 29.73 8.29L29.73 8.29L29.73 8.29Q29.34 8.99 29.34 9.90L29.34 9.90L29.34 9.90Q29.34 10.81 29.73 11.51L29.73 11.51L29.73 11.51Q30.11 12.21 30.79 12.59L30.79 12.59L30.79 12.59Q31.47 12.98 32.33 12.98L32.33 12.98L32.33 12.98Q33.03 12.98 33.61 12.71L33.61 12.71L33.61 12.71Q34.19 12.43 34.58 11.89L34.58 11.89L35.10 12.26L35.10 12.26Q34.65 12.92 33.93 13.26L33.93 13.26L33.93 13.26Q33.21 13.61 32.33 13.61L32.33 13.61ZM42.91 13.55L39.80 9.65L37.90 11.38L37.90 13.55L37.20 13.55L37.20 3.16L37.90 3.16L37.90 10.51L42.57 6.24L43.47 6.24L40.32 9.20L43.78 13.55L42.91 13.55Z"></path></g><!----><g data-v-423bf9ae="" id="117a3504-8056-4770-a28e-e809fe12d7d1" transform="matrix(1.1392369856451936,0,0,1.1392369856451936,-23.79339467081992,-10.392336261407443)" stroke="none" fill="#FFC402"><path d="M72.875 66c-.863-3.708.5-35 .5-35l-10.861-1.201c.938-10.688-.57-17.535-4.183-18.252-2.714-.536-5.734 2.543-8.648 8.493-1.723-5.503-4.372-8.532-6.83-9.571-2.073-.875-4.161-.519-5.87 1.007-3.17 2.821-5.286 10.118-2.096 22.217l-13.15 1.903s4.353 31.873 3.746 36.889-1.733 10.89-1.733 10.89l5.75 1.25C32.375 85.25 36.75 89 36.75 89l39-13.375S73.738 69.708 72.875 66zm-22.8-34.579l.716-.03-4.156.602c.88-2.863 1.771-5.385 2.655-7.574.39 2.061.67 4.38.785 7.002zM37.929 12.539c1.296-1.155 2.806-1.417 4.37-.758 2.271.961 4.899 4.182 6.464 10.238-1.269 2.877-2.509 6.299-3.684 10.197l-8.772 1.27c-3.085-11.587-1.115-18.511 1.622-20.947zm-1.304 30.836c-3.125.875-2.5 24.375-2.5 24.375C29.375 55 34.375 45.5 33 42.625S27.375 37.5 27.375 37.5c4.125 0 7.75 3.375 7.75 3.375l24.5-4.375c-1.125 3-19.875 6-23 6.875zm24.454-13.474l-9.584 1.386c-.162-3.537-.604-6.565-1.233-9.151 3.013-6.694 5.866-9.566 7.791-9.19 2.299.454 4.028 5.956 3.026 16.955z"></path></g><!----></svg>