<svg data-v-423bf9ae="" xmlns="http://www.w3.org/2000/svg" viewBox="0 0 290 90" class="iconLeft"><!----><!----><!----><g data-v-423bf9ae="" id="6074e4ee-a017-42dd-ad15-5ec7c4df671d" fill="black" transform="matrix(5.7915059834320255,0,0,5.7915059834320255,73.25174540653867,14.999999523162842)"><path d="M7.80 10.22L3.15 5.52L7.10 0.57L5.95 0.57L2.34 5.11L2.34 0.57L1.43 0.57L1.43 10.22L2.34 10.22L2.34 5.98L6.55 10.22ZM11.94 3.54C11.13 3.54 10.07 3.92 9.67 4.86L9.67 3.68L8.78 3.68L8.78 10.22L9.67 10.22L9.67 6.59C9.70 5.01 10.81 4.42 11.86 4.42C12.91 4.42 13.71 5.19 13.71 6.45L13.71 10.22L14.60 10.22L14.60 6.41C14.60 4.61 13.52 3.54 11.94 3.54ZM19.71 10.36C21.57 10.36 23.14 9.00 23.14 6.93C23.14 4.86 21.57 3.54 19.71 3.54C17.85 3.54 16.30 4.86 16.30 6.93C16.30 9.00 17.85 10.36 19.71 10.36ZM19.71 9.51C18.33 9.51 17.19 8.48 17.19 6.93C17.19 5.39 18.33 4.40 19.71 4.40C21.08 4.40 22.25 5.39 22.25 6.93C22.25 8.48 21.08 9.51 19.71 9.51ZM27.93 10.35C28.87 10.35 29.69 10.01 30.28 9.45L29.72 8.85C29.27 9.25 28.66 9.49 27.96 9.49C26.53 9.49 25.37 8.47 25.37 6.94C25.37 5.40 26.53 4.40 27.96 4.40C28.66 4.40 29.27 4.65 29.72 5.05L30.28 4.44C29.69 3.89 28.87 3.54 27.93 3.54C26.07 3.54 24.47 4.87 24.47 6.94C24.47 9.02 26.07 10.35 27.93 10.35ZM37.35 10.22L33.73 6.52L36.53 3.68L35.28 3.68L32.83 6.19L32.83 0L31.93 0L31.93 10.22L32.83 10.22L32.83 6.86L36.13 10.22Z"></path></g><!----><g data-v-423bf9ae="" id="5843cade-e464-4982-9f65-c267cce2c2b8" transform="matrix(1.1392369856451936,0,0,1.1392369856451936,-23.79339467081992,-10.392336261407443)" stroke="none" fill="black"><path d="M72.875 66c-.863-3.708.5-35 .5-35l-10.861-1.201c.938-10.688-.57-17.535-4.183-18.252-2.714-.536-5.734 2.543-8.648 8.493-1.723-5.503-4.372-8.532-6.83-9.571-2.073-.875-4.161-.519-5.87 1.007-3.17 2.821-5.286 10.118-2.096 22.217l-13.15 1.903s4.353 31.873 3.746 36.889-1.733 10.89-1.733 10.89l5.75 1.25C32.375 85.25 36.75 89 36.75 89l39-13.375S73.738 69.708 72.875 66zm-22.8-34.579l.716-.03-4.156.602c.88-2.863 1.771-5.385 2.655-7.574.39 2.061.67 4.38.785 7.002zM37.929 12.539c1.296-1.155 2.806-1.417 4.37-.758 2.271.961 4.899 4.182 6.464 10.238-1.269 2.877-2.509 6.299-3.684 10.197l-8.772 1.27c-3.085-11.587-1.115-18.511 1.622-20.947zm-1.304 30.836c-3.125.875-2.5 24.375-2.5 24.375C29.375 55 34.375 45.5 33 42.625S27.375 37.5 27.375 37.5c4.125 0 7.75 3.375 7.75 3.375l24.5-4.375c-1.125 3-19.875 6-23 6.875zm24.454-13.474l-9.584 1.386c-.162-3.537-.604-6.565-1.233-9.151 3.013-6.694 5.866-9.566 7.791-9.19 2.299.454 4.028 5.956 3.026 16.955z"></path></g><!----></svg>